<svg width="34" height="31" viewBox="0 0 34 31" fill="none" xmlns="http://www.w3.org/2000/svg">
<path fill-rule="evenodd" clip-rule="evenodd" d="M5.82855 11.9412C5.82855 11.3889 6.27627 10.9412 6.82855 10.9412H27.1714C27.7237 10.9412 28.1714 11.3889 28.1714 11.9412V30C28.1714 30.5523 27.7237 31 27.1714 31H6.82855C6.27627 31 5.82855 30.5523 5.82855 30V11.9412ZM9.71427 14.1765C9.71427 13.9003 9.93813 13.6765 10.2143 13.6765H14.0714C14.3476 13.6765 14.5714 13.9003 14.5714 14.1765V26.8529C14.5714 27.1291 14.3476 27.3529 14.0714 27.3529H10.2143C9.93813 27.3529 9.71427 27.1291 9.71427 26.8529V14.1765ZM17.9857 13.6765C17.7096 13.6765 17.4857 13.9003 17.4857 14.1765V26.8529C17.4857 27.1291 17.7096 27.3529 17.9857 27.3529H23.7857C24.0618 27.3529 24.2857 27.1291 24.2857 26.8529V14.1765C24.2857 13.9003 24.0618 13.6765 23.7857 13.6765H17.9857Z" fill="#E50124"/>
<path d="M17.2916 0.569084C17.6796 0.244322 18.249 0.260486 18.6179 0.606734L23.8 5.47059L32.1577 13.315C32.8185 13.9352 32.3796 15.0441 31.4733 15.0441H2.75247C1.81828 15.0441 1.39425 13.877 2.11058 13.2773L17.2916 0.569084Z" fill="#E50124"/>
</svg>
