<svg width="32" height="31" viewBox="0 0 32 31" fill="none" xmlns="http://www.w3.org/2000/svg">
<g clip-path="url(#clip0_34:670)">
<path d="M15.2449 0H16.732C17.079 0.154278 17.4713 0.124844 17.8404 0.199953C18.8034 0.327841 19.6977 0.766316 20.4486 1.34892C21.7322 2.53747 22.2004 4.30051 22.307 5.96204C22.2606 6.78926 22.249 7.62053 22.2954 8.44775C22.0707 10.5802 20.9971 12.7016 19.1419 13.9429C17.9649 14.7052 16.501 15.1325 15.0835 14.8432C13.5026 14.6026 12.0788 13.6516 11.2034 12.3768C9.92201 10.7061 9.4337 8.56752 9.62986 6.51724C9.66889 6.23304 9.70685 5.94885 9.69736 5.66161C9.83025 4.05285 10.3133 2.32635 11.6411 1.24235C12.6525 0.424265 13.9783 0.179653 15.2449 0Z" fill="#E50124"/>
<path d="M7.6829 16.8224C9.21849 16.189 10.8553 15.6947 12.5228 15.5668C13.3074 16.2712 14.3368 16.6448 15.3883 16.7726C15.787 16.8538 16.2025 16.8731 16.6022 16.7838C17.6949 16.661 18.6894 16.1931 19.5352 15.5313C20.3537 15.6196 21.1478 15.8734 21.9536 16.0358C23.9037 16.4884 25.9202 17.4101 26.8979 19.1914C27.8133 20.9737 27.8893 22.9955 28 24.9423C27.9821 25.2874 27.961 25.6365 27.9641 25.9837C27.9599 26.3602 27.9652 26.7388 27.9779 27.1164C27.0223 28.3466 25.4941 29.0002 24.026 29.4935C22.3881 29.935 20.7091 30.3197 19.0005 30.3481C18.6641 30.3562 18.3023 30.2811 17.9965 30.4496H14.0868C13.723 30.3745 13.356 30.3359 12.9858 30.3491C11.3911 30.2537 9.81121 29.9898 8.26507 29.6041C6.70628 29.0763 4.99033 28.4653 4.00422 27.1194C4.02637 26.3277 4.03059 25.535 4 24.7444C4.13183 22.6606 4.16031 20.4002 5.4354 18.6108C5.95746 17.7907 6.83178 17.2771 7.6829 16.8224Z" fill="#E50124"/>
</g>
<defs>
<clipPath id="clip0_34:670">
<rect width="32" height="30.4496" fill="white"/>
</clipPath>
</defs>
</svg>
