<svg width="34" height="31" viewBox="0 0 34 31" fill="none" xmlns="http://www.w3.org/2000/svg">
<path d="M6.92875 2.40002H7.53986C7.68245 2.46717 7.84368 2.45436 7.99537 2.48705C8.39107 2.54271 8.75861 2.73356 9.0672 2.98713C9.59466 3.50444 9.78709 4.27179 9.83087 4.99496C9.8118 5.355 9.80703 5.71681 9.8261 6.07685C9.73378 7.005 9.29257 7.92829 8.5302 8.46857C8.04651 8.80034 7.44494 8.98632 6.86243 8.86042C6.21275 8.75572 5.62764 8.34178 5.26791 7.78692C4.74132 7.05978 4.54065 6.12897 4.62126 5.23661C4.6373 5.11291 4.6529 4.98922 4.649 4.8642C4.70361 4.164 4.90211 3.41255 5.44778 2.94075C5.86342 2.58468 6.40822 2.47822 6.92875 2.40002Z" fill="#E50124"/>
<path d="M3.82115 10.0096C4.4522 9.72311 5.12485 9.49952 5.81008 9.44167C6.13253 9.7603 6.55554 9.92926 6.98765 9.98711C7.15148 10.0238 7.32225 10.0326 7.48651 9.99216C7.93552 9.93661 8.34423 9.72495 8.69183 9.4256C9.02816 9.46554 9.35451 9.58033 9.68564 9.65379C10.487 9.85856 11.3157 10.2754 11.7175 11.0812C12.0937 11.8875 12.1249 12.802 12.1704 13.6827C12.163 13.8388 12.1544 13.9967 12.1557 14.1537C12.1539 14.3241 12.1561 14.4953 12.1613 14.6661C11.7686 15.2226 11.1406 15.5183 10.5373 15.7414C9.86421 15.9411 9.17421 16.1151 8.47209 16.128C8.33383 16.1317 8.18517 16.0977 8.05948 16.1739H6.45282C6.3033 16.1399 6.15247 16.1225 6.00034 16.1284C5.34503 16.0853 4.69578 15.9659 4.06039 15.7914C3.41981 15.5527 2.71465 15.2763 2.30941 14.6675C2.31851 14.3094 2.32025 13.9508 2.30768 13.5931C2.36185 12.6505 2.37356 11.628 2.89755 10.8186C3.11209 10.4476 3.47139 10.2153 3.82115 10.0096Z" fill="#E50124"/>
<path d="M26.666 2.40002H27.2772C27.4198 2.46717 27.581 2.45436 27.7327 2.48705C28.1284 2.54271 28.4959 2.73356 28.8045 2.98713C29.332 3.50444 29.5244 4.27179 29.5682 4.99496C29.5491 5.355 29.5443 5.71681 29.5634 6.07685C29.4711 7.005 29.0299 7.92829 28.2675 8.46857C27.7838 8.80034 27.1822 8.98632 26.5997 8.86042C25.9501 8.75572 25.3649 8.34178 25.0052 7.78692C24.4786 7.05978 24.278 6.12897 24.3586 5.23661C24.3746 5.11291 24.3902 4.98922 24.3863 4.8642C24.4409 4.164 24.6394 3.41255 25.1851 2.94075C25.6007 2.58468 26.1455 2.47822 26.666 2.40002Z" fill="#E50124"/>
<path d="M23.5585 10.0096C24.1895 9.72311 24.8622 9.49952 25.5474 9.44167C25.8698 9.7603 26.2928 9.92926 26.725 9.98711C26.8888 10.0238 27.0596 10.0326 27.2238 9.99216C27.6728 9.93661 28.0815 9.72495 28.4291 9.4256C28.7655 9.46554 29.0918 9.58033 29.4229 9.65379C30.2243 9.85856 31.053 10.2754 31.4548 11.0812C31.831 11.8875 31.8622 12.802 31.9077 13.6827C31.9003 13.8388 31.8917 13.9967 31.893 14.1537C31.8912 14.3241 31.8934 14.4953 31.8986 14.6661C31.5059 15.2226 30.8779 15.5183 30.2746 15.7414C29.6015 15.9411 28.9115 16.1151 28.2094 16.128C28.0711 16.1317 27.9225 16.0977 27.7968 16.1739H26.1901C26.0406 16.1399 25.8898 16.1225 25.7376 16.1284C25.0823 16.0853 24.4331 15.9659 23.7977 15.7914C23.1571 15.5527 22.452 15.2763 22.0467 14.6675C22.0558 14.3094 22.0576 13.9508 22.045 13.5931C22.0992 12.6505 22.1109 11.628 22.6349 10.8186C22.8494 10.4476 23.2087 10.2153 23.5585 10.0096Z" fill="#E50124"/>
<path d="M16.7733 7.76776H17.7341C17.9583 7.87204 18.2119 7.85214 18.4504 7.90291C19.0725 7.98935 19.6504 8.28572 20.1356 8.67951C20.965 9.48286 21.2676 10.6745 21.3364 11.7975C21.3064 12.3567 21.2989 12.9185 21.3289 13.4777C21.1837 14.919 20.49 16.3528 19.2913 17.1919C18.5308 17.7071 17.5849 17.9959 16.669 17.8004C15.6475 17.6378 14.7275 16.995 14.1619 16.1333C13.3339 15.0041 13.0184 13.5586 13.1451 12.1728C13.1704 11.9807 13.1949 11.7886 13.1888 11.5945C13.2746 10.5071 13.5867 9.34016 14.4447 8.60747C15.0982 8.05452 15.9548 7.88919 16.7733 7.76776Z" fill="#E50124"/>
<path d="M24.983 17.1631C25.0216 17.1626 25.0989 17.1618 25.1374 17.1615C25.2278 17.1757 25.3187 17.1795 25.4107 17.173C25.4264 17.1757 25.4583 17.1815 25.4743 17.1842L25.4949 17.1899C25.5642 17.2115 25.637 17.2241 25.7081 17.2408C25.8175 17.3004 25.9626 17.3211 26.0195 17.4592C26.0304 17.4917 26.0426 17.524 26.0535 17.557C26.0497 17.6319 26.0476 17.7074 26.0466 17.7831C26.0552 17.9201 26.0226 18.0674 26.064 18.2003C26.1051 18.4031 26.2774 18.5015 26.4391 18.5526C26.5918 18.6283 26.7462 18.7002 26.9006 18.771C26.9965 18.8167 27.084 18.8981 27.1911 18.9044C27.2282 18.8998 27.3026 18.8905 27.3397 18.8856C27.4568 18.7828 27.5703 18.6732 27.6733 18.5518C27.6935 18.534 27.7149 18.5174 27.7353 18.4993C27.742 18.493 27.7553 18.4805 27.7622 18.4742C27.8324 18.4045 27.9107 18.3449 27.9975 18.3055C28.08 18.3348 28.1569 18.3812 28.2351 18.4241C28.2853 18.4695 28.3391 18.5094 28.3926 18.5504C28.5282 18.6622 28.6369 18.809 28.7568 18.9416C28.8294 19.0272 28.9098 19.1067 28.969 19.2062C29.072 19.3719 29.2207 19.5479 29.181 19.7693C29.0411 20.0643 28.7704 20.2545 28.6648 20.573C28.6821 20.7037 28.7509 20.816 28.7994 20.9341C28.8106 20.9809 28.826 21.0262 28.8444 21.0705C28.8584 21.1173 28.8753 21.1632 28.895 21.2077C28.9583 21.3797 29.0057 21.559 29.0808 21.7249C29.1146 21.8173 29.1931 21.8706 29.274 21.8958C29.2816 21.9004 29.2963 21.9092 29.3037 21.9138C29.5452 21.9707 29.8126 21.8917 30.0435 22.0218C30.0885 22.0841 30.113 22.1604 30.1387 22.235C30.142 22.2747 30.1458 22.3148 30.1537 22.3542C30.1587 22.4318 30.1537 22.5174 30.1853 22.5901C30.1853 22.8077 30.191 23.0261 30.1806 23.244C30.1687 23.3265 30.1622 23.4129 30.1622 23.4974C30.1515 23.6537 30.1361 23.8317 30.0264 23.9413C29.9627 24.034 29.8532 24.0449 29.7605 24.0734C29.5916 24.0761 29.4189 24.0498 29.2533 24.0914C29.2409 24.0977 29.2162 24.1097 29.2038 24.116C29.1555 24.1376 29.1208 24.1838 29.088 24.2278C28.9961 24.3945 28.9633 24.5952 28.8929 24.7742C28.8869 24.7882 28.8755 24.8163 28.8698 24.8306C28.8327 24.9156 28.8011 25.0039 28.7785 25.0954C28.7235 25.2064 28.679 25.3294 28.6705 25.4571C28.7054 25.5312 28.7537 25.5962 28.8015 25.6605C28.9193 25.7985 29.0311 25.9442 29.1324 26.0995C29.1481 26.135 29.1643 26.1711 29.1824 26.2061C29.1836 26.2523 29.1857 26.3444 29.1867 26.3906C29.1303 26.5363 29.0428 26.661 28.9652 26.7919C28.9081 26.8643 28.856 26.9417 28.8023 27.0177C28.685 27.1486 28.567 27.279 28.4419 27.4004C28.3769 27.4436 28.3125 27.4873 28.2497 27.5338C28.2109 27.56 28.174 27.589 28.1374 27.6185C27.9623 27.7046 27.8048 27.5682 27.6702 27.4521C27.6637 27.4458 27.6511 27.4329 27.645 27.4266C27.5612 27.3219 27.4663 27.2309 27.3697 27.1432C27.3181 27.103 27.2648 27.0368 27.1908 27.0806C26.9765 27.1615 26.7791 27.2932 26.5623 27.3687C26.3873 27.4482 26.1268 27.4977 26.0849 27.7528C26.0768 27.7798 26.0704 27.8074 26.0654 27.8359C26.0347 28.0105 26.0445 28.1909 26.0528 28.3684C26.0464 28.4197 26.0364 28.4709 26.0266 28.522C25.9959 28.5745 25.9626 28.6253 25.921 28.6671C25.7573 28.7439 25.5815 28.7852 25.4055 28.7997C25.2226 28.7992 25.0399 28.7983 24.8572 28.8C24.6938 28.7994 24.5375 28.7396 24.3814 28.6917C24.3714 28.6893 24.3517 28.6846 24.3417 28.6824L24.3305 28.6639C24.3003 28.6089 24.2565 28.5649 24.2318 28.5061C24.2285 28.3287 24.2618 28.1458 24.2242 27.9717C24.2175 27.931 24.2042 27.8492 24.1975 27.8085C24.1783 27.6035 24.0179 27.4999 23.8635 27.4482C23.8095 27.4173 23.7551 27.3884 23.6977 27.3676C23.4606 27.2664 23.236 27.1019 22.9803 27.0773C22.8164 27.156 22.6912 27.308 22.5699 27.4521C22.479 27.5116 22.3991 27.592 22.304 27.6426C22.2407 27.6418 22.1843 27.6349 22.1239 27.6213C22.0373 27.5562 21.9462 27.4977 21.8634 27.4266C21.7882 27.349 21.704 27.2845 21.6269 27.2101C21.5151 27.091 21.4259 26.9483 21.3189 26.8247C21.2237 26.6809 21.1412 26.5267 21.0789 26.3614C21.0777 26.3187 21.0774 26.2763 21.0784 26.2342C21.1814 26.0311 21.3203 25.8578 21.4554 25.6829C21.5223 25.5921 21.5991 25.4702 21.5558 25.3464C21.5306 25.2157 21.4842 25.0922 21.4431 24.9681C21.3693 24.7209 21.2813 24.4793 21.1878 24.2415C21.1581 24.1493 21.0572 24.1425 20.9858 24.1185C20.9047 24.0988 20.8238 24.0977 20.7423 24.0971C20.654 24.0742 20.565 24.0662 20.4753 24.0742C20.3992 24.0488 20.3181 24.0315 20.2536 23.9758C20.1123 23.8156 20.1242 23.5717 20.0693 23.3665C20.0783 23.1161 20.0764 22.8659 20.0726 22.6158C20.094 22.4502 20.1411 22.2919 20.173 22.1292C20.2315 22.0374 20.3026 21.9535 20.403 21.9305C20.5726 21.931 20.7458 21.9587 20.9135 21.9155C20.9247 21.9116 20.9475 21.9037 20.959 21.8996C21.0655 21.8783 21.1707 21.8037 21.2083 21.6826C21.2723 21.4765 21.3427 21.2728 21.4145 21.07C21.4904 20.9532 21.5256 20.807 21.5644 20.6698C21.6167 20.5695 21.548 20.5014 21.5092 20.4281C21.3807 20.1966 21.18 20.0266 21.0741 19.777C21.0741 19.6947 21.0912 19.6149 21.1019 19.5342C21.1602 19.4367 21.2111 19.3336 21.2685 19.2357C21.3995 19.0868 21.4942 18.8951 21.6465 18.7721C21.7233 18.6994 21.7947 18.6199 21.8703 18.5458C21.9778 18.4731 22.0789 18.3856 22.1967 18.3345C22.3734 18.3148 22.5181 18.4755 22.6382 18.607C22.6658 18.6406 22.6974 18.6696 22.7314 18.695C22.8057 18.774 22.8749 18.8629 22.9636 18.9219C23.0749 18.9561 23.177 18.8875 23.2698 18.8279C23.4499 18.7317 23.6361 18.6518 23.8176 18.5595C23.9822 18.4944 24.1849 18.3686 24.1985 18.1448C24.2063 18.0805 24.2142 18.0166 24.2218 17.9531C24.2415 17.8126 24.2446 17.6699 24.2311 17.5289C24.243 17.4748 24.2627 17.4234 24.2841 17.3734C24.3236 17.3395 24.3629 17.3053 24.404 17.2738C24.5275 17.2326 24.6533 17.2 24.7801 17.1733C24.8465 17.1735 24.9174 17.1883 24.983 17.1631ZM24.8805 19.9197L24.8879 19.9481C24.8134 19.9487 24.7166 19.9077 24.6616 19.9815C24.5551 20.0031 24.4109 20.0088 24.3336 20.076C24.2144 20.0867 24.1138 20.175 24.0039 20.2196C23.6318 20.4183 23.305 20.7236 23.0504 21.0918C22.9627 21.2288 22.8521 21.3567 22.8126 21.5259C22.7379 21.5699 22.7203 21.6856 22.696 21.7679C22.6444 21.9002 22.5773 22.0347 22.573 22.1825C22.5173 22.2596 22.5083 22.4026 22.5026 22.5119C22.4964 22.5529 22.484 22.6349 22.4779 22.6759L22.4557 22.6765C22.4512 22.8856 22.455 23.095 22.455 23.3047L22.4776 23.3044C22.4883 23.3358 22.4538 23.4219 22.5016 23.4143C22.4986 23.4793 22.5055 23.5447 22.5288 23.6051C22.6184 24.1846 22.8854 24.7267 23.2405 25.1457C23.3552 25.2923 23.4915 25.4303 23.6414 25.5224C23.8524 25.7291 24.1354 25.8428 24.4009 25.9314C24.5203 25.9808 24.6859 26.0134 24.8255 26.0298L24.8339 26.0615C25.0235 26.0746 25.2138 26.0637 25.4041 26.0618L25.4076 26.0314C25.4524 26.0465 25.5435 26.0645 25.5675 26.0126C25.5799 26.0123 25.6049 26.0115 25.6175 26.0112L25.6191 25.9847C25.7497 25.9633 25.9241 25.959 26.0283 25.8772C26.2578 25.8086 26.4589 25.6534 26.6575 25.5093C26.9879 25.1884 27.3162 24.8314 27.4989 24.3735C27.551 24.3434 27.5698 24.271 27.5712 24.2084C27.6319 24.0542 27.7097 23.8883 27.7135 23.7153L27.732 23.7112C27.7465 23.5843 27.7822 23.4605 27.7839 23.3323L27.8067 23.3317C27.807 23.2839 27.8074 23.1885 27.8077 23.1407L27.8307 23.1404C27.8307 23.0652 27.8307 22.9151 27.8307 22.84H27.8074C27.8065 22.7913 27.8043 22.694 27.8034 22.6451L27.7832 22.6585C27.7855 22.6084 27.8098 22.5089 27.7601 22.4887C27.7672 22.4264 27.7496 22.3684 27.7258 22.314C27.7287 22.3017 27.7344 22.2766 27.7375 22.2643L27.7135 22.2659C27.7235 22.1366 27.653 22.0243 27.6228 21.9056C27.5907 21.8247 27.5779 21.7274 27.5248 21.6618C27.4625 21.4543 27.33 21.2821 27.2284 21.0987C27.0272 20.8797 26.8564 20.6148 26.613 20.4541C26.6173 20.4197 26.5797 20.4019 26.5552 20.4142C26.5409 20.3707 26.501 20.353 26.4686 20.3327C26.2205 20.1914 25.9667 20.049 25.6907 19.9976C25.6439 19.9115 25.4733 19.9708 25.3981 19.9489L25.4055 19.9186C25.2304 19.9087 25.0551 19.9139 24.8805 19.9197Z" fill="#E50124"/>
<path d="M13.8234 18.4725C13.865 18.4668 13.9116 18.4261 13.9518 18.4498C14.0494 18.6007 14.1495 18.75 14.2654 18.8834C14.3762 19.011 14.4607 19.1756 14.6017 19.2647C14.6933 19.4003 14.822 19.4875 14.9345 19.5963C15.0356 19.6909 15.1489 19.7696 15.2623 19.8434C15.3323 19.8932 15.4051 19.9388 15.4793 19.9804C15.6801 20.087 15.8849 20.196 16.1013 20.2521C16.2405 20.2983 16.3856 20.316 16.5262 20.3581C16.5812 20.3688 16.6366 20.3786 16.6925 20.3874C16.8531 20.4172 17.0182 20.4153 17.1794 20.3879C17.2353 20.3825 17.291 20.3732 17.3464 20.3606C17.4628 20.3308 17.5808 20.3109 17.6959 20.274C17.8617 20.2559 18.0147 20.1682 18.1693 20.1015C18.2599 20.0523 18.3655 20.029 18.4407 19.9476C18.489 19.9246 18.5366 19.8986 18.582 19.8683C18.6864 19.801 18.7894 19.7297 18.8865 19.6493C19.0549 19.5025 19.2238 19.3538 19.3716 19.1794C19.3932 19.1545 19.4148 19.1294 19.4367 19.1043C19.5899 18.9301 19.7322 18.7426 19.8664 18.5493C19.8894 18.5133 19.9113 18.4761 19.9384 18.4438C19.9765 18.4482 20.0136 18.4594 20.0514 18.4676C20.1249 18.5154 20.2046 18.5482 20.2838 18.5819C20.3876 18.6292 20.4884 18.6877 20.5978 18.7166C20.6304 18.75 20.7006 18.756 20.6944 18.82C20.6395 18.9238 20.571 19.0179 20.5143 19.1207C20.3802 19.3317 20.2451 19.5438 20.1375 19.7748C20.0669 19.9262 19.9893 20.0733 19.9284 20.2305C19.8093 20.4937 19.7186 20.7742 19.6406 21.0571C19.5956 21.2285 19.5447 21.3983 19.5217 21.5762C19.5 21.6749 19.485 21.775 19.4767 21.8769C19.4674 21.9414 19.4598 22.0062 19.4534 22.0718C19.4413 22.1519 19.4341 22.2353 19.4308 22.3173L19.4286 22.3422C19.4148 22.4335 19.4079 22.5278 19.4096 22.6213C19.4082 22.6554 19.4065 22.6902 19.4046 22.7249C19.3849 22.981 19.3625 23.2481 19.4015 23.5034C19.4084 23.5444 19.422 23.6264 19.4289 23.6674C19.4327 23.7388 19.4336 23.8145 19.4486 23.8858C19.4639 23.9924 19.4753 24.1001 19.501 24.2048C19.5041 24.292 19.5212 24.3776 19.5462 24.4602C19.6442 24.9019 19.7738 25.3357 19.9506 25.7444C20.0041 25.8737 20.0576 26.003 20.1164 26.1298C20.2265 26.3614 20.3376 26.5945 20.4746 26.8072C20.507 26.8769 20.5477 26.9425 20.5969 26.9983C20.6026 27.0046 20.614 27.0174 20.6197 27.024C20.6509 27.0707 20.679 27.1216 20.7204 27.1587C20.7791 27.2782 20.6483 27.2744 20.57 27.2883C20.4458 27.29 20.3231 27.3088 20.2011 27.3315C20.1026 27.3326 19.9996 27.3085 19.9037 27.3427C19.8102 27.3465 19.717 27.3493 19.6239 27.3504C19.5193 27.3597 19.4087 27.3279 19.308 27.3703C19.215 27.3739 19.1222 27.3766 19.0297 27.3782C18.9495 27.3763 18.871 27.3774 18.7913 27.3777C18.6798 27.3766 18.5692 27.3766 18.4583 27.378C18.3153 27.3769 18.1726 27.3763 18.0301 27.3777C17.467 27.3777 16.9042 27.3772 16.3411 27.378C16.2063 27.3766 16.0714 27.3766 15.9367 27.3777C15.8413 27.3766 15.7462 27.3766 15.6513 27.3777C15.5635 27.3758 15.4767 27.3772 15.3894 27.3782C15.2552 27.3772 15.1213 27.3774 14.9876 27.3752L14.9662 27.3722C14.8855 27.3556 14.8049 27.3474 14.7233 27.3495C14.6436 27.3479 14.5649 27.3501 14.4856 27.3506C14.3741 27.349 14.2632 27.3509 14.1521 27.3504C14.1357 27.3485 14.1029 27.3446 14.0865 27.3427C13.9573 27.3148 13.8255 27.3258 13.6954 27.3296C13.4285 27.3074 13.1611 27.2859 12.897 27.2345C12.8238 27.2197 12.7507 27.2148 12.6768 27.2137C12.6056 27.1926 12.5343 27.185 12.4615 27.188C12.4091 27.1429 12.3547 27.1347 12.298 27.1634C12.0994 27.1363 11.8977 27.1235 11.7036 27.0644C11.6455 27.0319 11.5892 27.0286 11.5342 27.0549C11.4655 27.0398 11.3958 27.0256 11.3268 27.0155C11.0679 26.9431 10.801 26.9231 10.5413 26.857C10.4939 26.8449 10.4468 26.8329 10.3993 26.8244C9.97106 26.7197 9.54406 26.6068 9.12467 26.4614C9.02357 26.4324 8.93103 26.3698 8.82589 26.3605C8.68458 26.2941 8.54138 26.2334 8.40079 26.1654C8.37105 26.1479 8.34131 26.1304 8.31039 26.1159C8.28613 26.1039 8.26139 26.0932 8.23617 26.0839C8.15124 26.0336 8.09772 25.9461 8.06132 25.8474C8.05871 25.6189 8.06394 25.3909 8.09296 25.1651C8.12793 25.0995 8.1315 25.0345 8.10319 24.9705C8.10581 24.9508 8.11057 24.9115 8.11295 24.8921C8.13483 24.7373 8.17028 24.5864 8.19073 24.432C8.23474 24.2125 8.27185 23.9913 8.33061 23.7768C8.35844 23.6841 8.37747 23.5881 8.39603 23.4936C8.46121 23.2858 8.5409 23.0832 8.59086 22.8698C8.66888 22.7137 8.7167 22.5406 8.78521 22.3794C8.83017 22.2804 8.8825 22.1866 8.92389 22.086C8.99788 21.9245 9.09208 21.7761 9.16654 21.615C9.25551 21.4677 9.36136 21.3349 9.44653 21.1851C9.56999 21.0503 9.66039 20.8789 9.80026 20.7638C9.90398 20.6613 10.0056 20.5561 10.1159 20.4631C10.253 20.3532 10.4012 20.2622 10.5358 20.1485C10.7076 20.0517 10.8698 19.9342 11.0434 19.8412C11.0739 19.8237 11.1043 19.8062 11.1348 19.7885C11.3063 19.689 11.4852 19.6072 11.656 19.5058C11.8749 19.4044 12.0928 19.2986 12.3066 19.1843C12.4826 19.1125 12.6539 19.0255 12.8254 18.9408C12.966 18.8744 13.1066 18.8082 13.247 18.7407C13.4028 18.6778 13.5557 18.6056 13.7073 18.5307C13.748 18.5171 13.787 18.4977 13.8234 18.4725Z" fill="#E50124"/>
</svg>
